<svg width="425.19497070312497px" height="122.02138671875px" xmlns="http://www.w3.org/2000/svg" viewBox="37.40251464843752 13.989306640625003 425.19497070312497 122.02138671875" style="background: rgba(0, 0, 0, 0);" preserveAspectRatio="xMidYMid"><defs><linearGradient id="editing-gradow-gradient" x1="0" x2="1" y1="0.5" y2="0.5" gradientUnits="objectBoundingBox"><stop offset="0" stop-color="#f0f"></stop><stop offset="1" stop-color="#0ff"></stop></linearGradient><filter id="editing-gradow-filter" x="-100%" y="-100%" width="300%" height="300%"><feFlood flood-color="#fffcd9" result="flood"></feFlood><feComposite operator="in" in2="SourceAlpha" in="flood" result="shadow"></feComposite><feOffset dx="-4" dy="-4" in="SourceGraphic" result="offset-1"></feOffset><feOffset dx="4" dy="4" in="shadow" result="offset-2"></feOffset><feMerge><feMergeNode in="offset-2"></feMergeNode><feMergeNode in="offset-1"></feMergeNode></feMerge></filter></defs><g filter="url(#editing-gradow-filter)"><g transform="translate(103.22437870502472, 97.00718688964844)"><path d="M6.53 0L-0.83 0L10.75-42.24L24.13-42.24L27.07-18.11L38.98-42.24L50.18-42.24L51.33-10.62L51.33-10.62Q51.58-4.35 54.66-2.43L54.66-2.43L54.66-2.43Q53.95-1.15 51.90 0.06L51.90 0.06L51.90 0.06Q49.86 1.28 47.14 1.28L47.14 1.28L47.14 1.28Q44.42 1.28 42.82 0.51L42.82 0.51L42.82 0.51Q41.22-0.26 40.32-1.54L40.32-1.54L40.32-1.54Q38.72-3.84 38.72-8.26L38.72-8.26L38.72-28.03L26.11 0L18.18 0L13.70-28.74L6.53 0ZM77.44-17.98L77.44-17.98L77.44-17.98Q79.74-22.08 79.74-26.24L79.74-26.24L79.74-26.24Q79.74-28.99 77.76-28.99L77.76-28.99L77.76-28.99Q76.22-28.99 74.62-26.37L74.62-26.37L74.62-26.37Q72.96-23.74 72.45-20.35L72.45-20.35L69.12 0L55.87 1.28L62.40-32.64L72.96-33.92L71.81-27.46L71.81-27.46Q74.94-33.92 81.98-33.92L81.98-33.92L81.98-33.92Q85.70-33.92 87.71-32L87.71-32L87.71-32Q89.73-30.08 89.73-26.14L89.73-26.14L89.73-26.14Q89.73-22.21 87.14-19.71L87.14-19.71L87.14-19.71Q84.54-17.22 80.13-17.22L80.13-17.22L80.13-17.22Q78.21-17.22 77.44-17.98ZM103.87 0L90.18 0L97.98-42.05L97.98-42.05Q104.32-42.75 113.57-42.75L113.57-42.75L113.57-42.75Q122.82-42.75 127.10-40.06L127.10-40.06L127.10-40.06Q131.39-37.38 131.39-31.97L131.39-31.97L131.39-31.97Q131.39-26.56 128.61-23.17L128.61-23.17L128.61-23.17Q125.82-19.78 121.02-18.69L121.02-18.69L121.02-18.69Q122.11-13.38 124.61-9.09L124.61-9.09L124.61-9.09Q126.91-5.06 129.60-3.78L129.60-3.78L129.60-3.78Q128.64-1.09 126.69 0.10L126.69 0.10L126.69 0.10Q124.74 1.28 121.95 1.28L121.95 1.28L121.95 1.28Q119.17 1.28 116.99-0.35L116.99-0.35L116.99-0.35Q114.82-1.98 113.09-4.99L113.09-4.99L113.09-4.99Q109.44-11.52 109.06-21.82L109.06-21.82L109.50-21.82L109.50-21.82Q114.24-21.95 116.61-24.42L116.61-24.42L116.61-24.42Q118.98-26.88 118.98-32.06L118.98-32.06L118.98-32.06Q118.98-38.53 113.54-38.78L113.54-38.78L112.13-38.78L112.13-38.78Q111.55-38.78 111.23-38.72L111.23-38.72L103.87 0ZM137.12-1.92L137.12-1.92L137.12-1.92Q135.62-3.58 134.94-6.21L134.94-6.21L134.94-6.21Q134.27-8.83 134.27-13.12L134.27-13.12L134.27-13.12Q134.27-17.41 135.74-21.31L135.74-21.31L135.74-21.31Q137.22-25.22 139.90-28.03L139.90-28.03L139.90-28.03Q145.41-33.92 154.50-33.92L154.50-33.92L154.50-33.92Q157.76-33.92 160.13-32.83L160.13-32.83L171.07-33.92L166.34-8.96L166.34-8.96Q166.14-8.19 166.14-6.78L166.14-6.78L166.14-6.78Q166.14-5.38 167.01-4.48L167.01-4.48L167.01-4.48Q167.87-3.58 169.15-3.46L169.15-3.46L169.15-3.46Q168.51-1.28 166.18 0L166.18 0L166.18 0Q163.84 1.28 161.22 1.28L161.22 1.28L161.22 1.28Q158.59 1.28 156.83 0.29L156.83 0.29L156.83 0.29Q155.07-0.70 154.56-2.37L154.56-2.37L154.56-2.37Q153.54-0.77 151.36 0.26L151.36 0.26L151.36 0.26Q149.18 1.28 146.27 1.28L146.27 1.28L146.27 1.28Q143.36 1.28 140.99 0.51L140.99 0.51L140.99 0.51Q138.62-0.26 137.12-1.92ZM150.62-27.90L150.62-27.90L150.62-27.90Q149.89-26.75 149.25-24.80L149.25-24.80L149.25-24.80Q148.61-22.85 147.55-17.63L147.55-17.63L147.55-17.63Q146.50-12.42 146.50-8.70L146.50-8.70L146.50-8.70Q146.50-4.99 147.07-3.90L147.07-3.90L147.07-3.90Q147.65-2.82 148.67-2.82L148.67-2.82L148.67-2.82Q150.72-2.82 152.22-4.77L152.22-4.77L152.22-4.77Q153.73-6.72 154.30-10.18L154.30-10.18L157.70-28.93L157.70-28.93Q156.35-30.08 154.78-30.08L154.78-30.08L154.78-30.08Q153.22-30.08 152.29-29.57L152.29-29.57L152.29-29.57Q151.36-29.06 150.62-27.90ZM222.27-10.69L222.27-10.69Q218.05-4.86 213.98-1.79L213.98-1.79L213.98-1.79Q209.92 1.28 205.73 1.28L205.73 1.28L205.73 1.28Q201.54 1.28 200.06 0.45L200.06 0.45L200.06-13.63L200.06-13.63Q196.42-3.90 189.89-0.13L189.89-0.13L189.89-0.13Q187.52 1.28 185.28 1.28L185.28 1.28L185.28 1.28Q180.99 1.28 179.14 0.45L179.14 0.45L179.14 0.45Q178.69-14.21 178.30-18.27L178.30-18.27L178.30-18.27Q177.92-22.34 177.60-24.83L177.60-24.83L177.60-24.83Q176.96-29.82 174.78-31.87L174.78-31.87L174.78-31.87Q177.54-33.92 181.38-33.92L181.38-33.92L181.38-33.92Q188.80-33.92 189.82-24.70L189.82-24.70L189.82-24.70Q190.08-22.53 190.08-20.22L190.08-20.22L190.08-20.22Q190.08-16.77 189.31-4.74L189.31-4.74L189.31-4.74Q190.85-5.44 192.48-7.97L192.48-7.97L192.48-7.97Q194.11-10.50 195.46-13.95L195.46-13.95L195.46-13.95Q198.46-21.95 198.46-28.86L198.46-28.86L198.46-28.86Q198.46-29.95 198.18-31.10L198.18-31.10L198.18-31.10Q197.89-32.26 197.57-32.58L197.57-32.58L197.57-32.58Q199.81-33.92 203.23-33.92L203.23-33.92L203.23-33.92Q206.66-33.92 208.29-31.58L208.29-31.58L208.29-31.58Q209.92-29.25 210.37-24.96L210.37-24.96L210.37-24.96Q210.88-19.52 210.88-16.26L210.88-16.26L210.88-16.26Q210.88-11.71 210.43-4.99L210.43-4.99L210.43-4.99Q213.63-7.30 216.26-14.85L216.26-14.85L216.26-14.85Q218.88-22.40 218.88-27.78L218.88-27.78L218.88-27.78Q218.88-30.14 218.50-31.55L218.50-31.55L218.50-31.55Q220.61-33.92 224.26-33.92L224.26-33.92L224.26-33.92Q226.50-33.92 228.13-32.70L228.13-32.70L228.13-32.70Q229.76-31.49 229.76-29.22L229.76-29.22L229.76-29.22Q229.76-26.94 229.09-24.51L229.09-24.51L229.09-24.51Q228.42-22.08 227.33-19.58L227.33-19.58L227.33-19.58Q225.22-14.59 222.27-10.69L222.27-10.69ZM234.27-1.92L234.27-1.92L234.27-1.92Q232.77-3.58 232.10-6.21L232.10-6.21L232.10-6.21Q231.42-8.83 231.42-13.12L231.42-13.12L231.42-13.12Q231.42-17.41 232.90-21.31L232.90-21.31L232.90-21.31Q234.37-25.22 237.06-28.03L237.06-28.03L237.06-28.03Q242.56-33.92 251.65-33.92L251.65-33.92L251.65-33.92Q254.91-33.92 257.28-32.83L257.28-32.83L268.22-33.92L263.49-8.96L263.49-8.96Q263.30-8.19 263.30-6.78L263.30-6.78L263.30-6.78Q263.30-5.38 264.16-4.48L264.16-4.48L264.16-4.48Q265.02-3.58 266.30-3.46L266.30-3.46L266.30-3.46Q265.66-1.28 263.33 0L263.33 0L263.33 0Q260.99 1.28 258.37 1.28L258.37 1.28L258.37 1.28Q255.74 1.28 253.98 0.29L253.98 0.29L253.98 0.29Q252.22-0.70 251.71-2.37L251.71-2.37L251.71-2.37Q250.69-0.77 248.51 0.26L248.51 0.26L248.51 0.26Q246.34 1.28 243.42 1.28L243.42 1.28L243.42 1.28Q240.51 1.28 238.14 0.51L238.14 0.51L238.14 0.51Q235.78-0.26 234.27-1.92ZM247.78-27.90L247.78-27.90L247.78-27.90Q247.04-26.75 246.40-24.80L246.40-24.80L246.40-24.80Q245.76-22.85 244.70-17.63L244.70-17.63L244.70-17.63Q243.65-12.42 243.65-8.70L243.65-8.70L243.65-8.70Q243.65-4.99 244.22-3.90L244.22-3.90L244.22-3.90Q244.80-2.82 245.82-2.82L245.82-2.82L245.82-2.82Q247.87-2.82 249.38-4.77L249.38-4.77L249.38-4.77Q250.88-6.72 251.46-10.18L251.46-10.18L254.85-28.93L254.85-28.93Q253.50-30.08 251.94-30.08L251.94-30.08L251.94-30.08Q250.37-30.08 249.44-29.57L249.44-29.57L249.44-29.57Q248.51-29.06 247.78-27.90ZM272.70-6.40L272.70-6.40L272.70-6.40Q272.70-8.13 273.60-12.48L273.60-12.48L276.99-29.76L273.22-29.76L273.47-31.68L273.47-31.68Q281.15-33.98 288.58-39.62L288.58-39.62L291.65-39.62L290.11-32.64L295.10-32.64L294.53-29.76L289.60-29.76L286.34-12.48L286.34-12.48Q285.50-8.51 285.50-7.17L285.50-7.17L285.50-7.17Q285.50-4.10 288.19-3.46L288.19-3.46L288.19-3.46Q287.55-1.28 285.25 0L285.25 0L285.25 0Q282.94 1.28 279.68 1.28L279.68 1.28L279.68 1.28Q276.42 1.28 274.56-0.77L274.56-0.77L274.56-0.77Q272.70-2.82 272.70-6.40Z" fill="url(#editing-gradow-gradient)"></path></g></g><style>text {
  font-size: 64px;
  font-family: Arial Black;
  dominant-baseline: central;
  text-anchor: middle;
}</style></svg>